#N canvas 1352 539 450 300 10;
#X obj 47 27 dumpOSC 9000;
#X obj 87 277 sendOSC;
#X msg 107 250 connect localhost 9001;
#X obj 47 54 route /falcon/position;
#X obj 47 83 unpack 0 0 0;
#X text 232 29 libnifalcon virtual wall;
#X text 233 44 Stephen Sinclair \, 2008;
#X text 233 72 radarsat1@gmail.com;
#X obj 87 107 t f f;
#X obj 87 174 *;
#X obj 119 128 < 0;
#X obj 107 228 loadbang;
#X msg 87 203 send /falcon/force 0 \$1 0;
#X floatatom 33 200 5 0 0 0 - - -;
#X obj 119 149 * -1;
#X connect 0 0 3 0;
#X connect 2 0 1 0;
#X connect 3 0 4 0;
#X connect 4 1 8 0;
#X connect 8 0 9 0;
#X connect 8 1 10 0;
#X connect 9 0 12 0;
#X connect 9 0 13 0;
#X connect 10 0 14 0;
#X connect 11 0 2 0;
#X connect 12 0 1 0;
#X connect 14 0 9 1;
